<?xml version="1.0" encoding="utf-8"?>
<!-- Generator: Adobe Illustrator 15.0.0, SVG Export Plug-In . SVG Version: 6.00 Build 0)  -->
<!DOCTYPE svg PUBLIC "-//W3C//DTD SVG 1.1//EN" "http://www.w3.org/Graphics/SVG/1.1/DTD/svg11.dtd">
<svg version="1.1" xmlns="http://www.w3.org/2000/svg" xmlns:xlink="http://www.w3.org/1999/xlink" x="0px" y="0px"
	 width="2054.896px" height="61.782px" viewBox="0 0 2054.896 61.782" enable-background="new 0 0 2054.896 61.782"
	 xml:space="preserve">
<g>
	<path fill="#F4F4F4" d="M2054.898,37.498c0,0-32.934,24.284-77.268,24.284s-1859.666,0-1897.333,0S0,37.498,0,37.498V0h2054.898
		V37.498z"/>
	<path fill="#E2E2E2" d="M0.002,37.498c0.036,0.021,42.646,24.284,80.296,24.284c37.667,0,1852.999,0,1897.333,0
		c44.324,0,77.252-24.272,77.266-24.284H0.002z"/>
	<path fill="#D1D2D1" d="M881.76,0c4.544,13.438,17.248,23.115,32.221,23.115h228.301c14.973,0,27.676-9.678,32.221-23.115H881.76z"
		/>
	<path fill="#D1D2D1" d="M1925.549,19.521c0,2.473-2.004,4.478-4.478,4.478h-83.045c-2.474,0-4.478-2.005-4.478-4.478l0,0
		c0-2.473,2.004-4.478,4.478-4.478h83.045C1923.545,15.044,1925.549,17.049,1925.549,19.521L1925.549,19.521z"/>
	<circle fill="#15161B" cx="1038.448" cy="-1087.671" r="4.75"/>
</g>
</svg>
