<?xml version="1.0" encoding="utf-8"?>
<!-- Generator: Adobe Illustrator 15.0.0, SVG Export Plug-In . SVG Version: 6.00 Build 0)  -->
<!DOCTYPE svg PUBLIC "-//W3C//DTD SVG 1.1//EN" "http://www.w3.org/Graphics/SVG/1.1/DTD/svg11.dtd">
<svg version="1.1" xmlns="http://www.w3.org/2000/svg" xmlns:xlink="http://www.w3.org/1999/xlink" x="0px"
	 y="0px" width="218.891px" height="841.889px" viewBox="311.499 -119.14 218.891 841.889"
	 enable-background="new 311.499 -119.14 218.891 841.889" xml:space="preserve">
<path fill="#9A9A9A" d="M476.239,242.49v118.629c0,4.021-3.16,7.181-7.181,7.181c-4.021,0-7.182-3.16-7.182-7.181V242.49
	c0-4.021,3.16-7.181,7.182-7.181C472.791,235.022,476.239,238.469,476.239,242.49z"/>
<g>
	<path fill="#9A9A9A" d="M388.631,301.948c0,6.319,5.17,11.776,11.776,11.776h0.862c6.319,0,11.776-5.17,11.776-11.776
		s-5.17-11.776-11.776-11.776h-0.862C394.089,290.172,388.631,295.342,388.631,301.948L388.631,301.948z"/>
</g>
</svg>
